<?xml version="1.0" standalone="no"?>
<!-- Generator: Adobe Fireworks 10, Export SVG Extension by Aaron Beall (http://fireworks.abeall.com) . Version: 0.6.1  -->
<!DOCTYPE svg PUBLIC "-//W3C//DTD SVG 1.1//EN" "http://www.w3.org/Graphics/SVG/1.1/DTD/svg11.dtd">
<svg id="Untitled-Page%201" viewBox="0 0 134 24" style="background-color:#ffffff00" version="1.1"
	xmlns="http://www.w3.org/2000/svg" xmlns:xlink="http://www.w3.org/1999/xlink" xml:space="preserve"
	x="0px" y="0px" width="134px" height="24px"
>
	<g id="Layer%201">
		<g>
			<path d="M 15.4072 24 L 11.7036 17.333 L 6.6665 17.333 L 6.6665 24 L 0 24 L 0 0 L 11.5557 0 C 14.9629 0 17.6294 0.7407 19.4072 2.2222 C 21.3335 3.7036 22.2222 5.7778 22.2222 8.4443 C 22.2222 10.2222 21.7778 11.8516 21.0371 13.0371 C 20.2964 14.3701 19.1113 15.4072 17.6294 16.1484 L 22.9629 24 L 15.4072 24 ZM 45.7778 0 L 25.4814 0 L 25.4814 23.8516 L 46.2222 23.8516 L 46.2222 18.8145 L 32.2964 18.8145 L 32.2964 14.3701 L 44.5928 14.3701 L 44.5928 9.4814 L 32.2964 9.4814 L 32.2964 5.0371 L 45.7778 5.0371 L 45.7778 0 ZM 47.8516 0 L 55.1113 0 L 61.4814 17.333 L 68 0 L 74.8145 0 L 64.7407 24 L 57.7778 24 L 47.8516 0 ZM 93.334 24 L 101.333 24 L 91.2598 9.9258 L 100.7412 0 L 93.0371 0 L 83.4072 10.3701 L 83.4072 0 L 76.7402 0 L 76.7402 24 L 83.4072 24 L 83.4072 18.0742 L 86.666 14.667 L 93.334 24 ZM 103.8516 24 L 110.5176 24 L 110.5176 0 L 103.8516 0 L 103.8516 24 ZM 133.9258 0 L 112 0 L 112 5.1851 L 119.5566 5.1851 L 119.5566 24 L 126.2227 24 L 126.2227 5.1851 L 133.9258 5.1851 L 133.9258 0 ZM 6.6665 12.4443 L 11.5557 12.4443 C 12.8887 12.4443 13.9258 12.1479 14.6665 11.5557 C 15.4072 10.8149 15.8516 9.9258 15.8516 8.5928 C 15.8516 7.4072 15.4072 6.5186 14.6665 5.9258 C 13.9258 5.333 12.8887 5.0371 11.5557 5.0371 L 6.6665 5.0371 L 6.6665 12.4443 Z" fill="#ffffff"/>
		</g>
	</g>
</svg>